<svg width="347" height="107" xmlns="http://www.w3.org/2000/svg" viewBox="0 0 347.25 107"><defs><style>.cls-3,.cls-5{fill:none;stroke:#27282d;stroke-width:2.5px}.cls-3{stroke-linecap:round;stroke-miterlimit:10}</style></defs><path d="M184.25 29l9.44-18.57s9.9 18.29 9.46 18.57-9.42 6.63-9.42 6.63zm.08 6.64l9.41 6.59 9.42-6.59-9.42 15.72z" stroke-linecap="square" stroke-linejoin="round" fill="none" stroke="#27282d" stroke-width="2.5"/><path d="M17.17 0h313.25a16.75 16.75 0 0116.83 16.68v73.64A16.77 16.77 0 01330.33 107H17.17A16.9 16.9 0 01.25 90.24V16.68A16.77 16.77 0 0117.17 0z" fill="#13171c"/><path class="cls-3" d="M137.73 72.27h17.45c2 0 3.4 2.33 2.72 4.55l-3.49 11.58a3 3 0 01-2.73 2.26h-19.52m7.7-9.18h-10.87"/><path d="M96.44 38.72l-1.21-.3-.37 1.58h1.58zM112.25 40a1.25 1.25 0 000-2.5zm-10.17-30l-6.83 28.42 2.43.59 6.85-28.45zm-5.64 30h15.81v-2.5H96.44z" fill="#27282d"/><path class="cls-3" d="M106.25 24.24L92.63 29"/><path class="cls-5" d="M14.2 18.3h6.94v6.73H14.2zm-.55 68.24h6.94v6.73h-6.94zM192.68 2.27v52.58h-62.85V107M0 65.93h78.25v40.8m177.07 0V51.84h20.48m49.74 54.89V51.84h-21.56m-48.66 16.53h70.44M271.58 60h37.06m-4.77-40.58v15.51m-13.44-16.61v11.77m-11.49-13v10.1m2.44 32.06a8.29 8.29 0 01-.49-2.78 8.67 8.67 0 0117.34 0 8.29 8.29 0 01-.48 2.78"/><path class="cls-5" d="M275.8 59.63a14 14 0 01-.5-3.68 14.7 14.7 0 0129.39 0 14 14 0 01-.49 3.68M316.87 2v25.66H347"/><path d="M29.82 21.54l8.1-9.39 8.12 9.39m4.36 5.04L51.66 28m-14.3-1.42l1.3 1.42m-14.03-1.42l1.3 1.42m20.11 5.93l-8.12 9.4-8.1-9.4" stroke-miterlimit="10" fill="none" stroke="#27282d" stroke-width="2.5"/><path d="M39.25 58.39h4.42L53.32 73V58.39h4.72v22.44h-4.32l-9.65-14.55v14.55h-4.72V58.39zm34 23.02a14.73 14.73 0 01-4.72-.77 8.59 8.59 0 01-3.41-2.41 9.9 9.9 0 01-2.22-3.66 15.5 15.5 0 010-9.83 9.22 9.22 0 012.22-3.66 8.49 8.49 0 013.51-2.31 11.9 11.9 0 014.62-.77 14.75 14.75 0 014.73.77 11.21 11.21 0 013.52 2.31 11.58 11.58 0 012.21 3.66 15.08 15.08 0 01.7 4.92 15 15 0 01-.7 4.91 10.39 10.39 0 01-2.11 3.66 8 8 0 01-3.52 2.31 13 13 0 01-4.83.87zm0-4a5.49 5.49 0 004.63-2 9.59 9.59 0 001.5-5.78 9.26 9.26 0 00-1.5-5.68 5.37 5.37 0 00-4.63-2 5.47 5.47 0 00-4.62 2 9.44 9.44 0 00-1.51 5.68 9.59 9.59 0 001.51 5.78 5.34 5.34 0 004.62 1.95zm12.43-19.02h5.57L94.92 74l3.82-15.41h5.12l4 15.41 3.52-15.6h5.23l-6.36 22.43h-4.72l-4.28-16.57-4.22 16.57h-4.62z" fill="#68aaff"/><path d="M119.54 58.39h8a13.44 13.44 0 014.32.57 7.41 7.41 0 012.71 1.54 5.23 5.23 0 011.41 2.22 7.83 7.83 0 01.4 2.6 8.67 8.67 0 01-.4 2.8 5.58 5.58 0 01-1.41 2.31A7.41 7.41 0 01131.9 72a13.84 13.84 0 01-4.32.58h-4.22v8.38h-3.92V58.39zm8 10.88a9.51 9.51 0 002.51-.29 4.25 4.25 0 001.51-.77 3.34 3.34 0 00.8-1.25 8.18 8.18 0 00.2-1.64 7.5 7.5 0 00-.2-1.64 2.45 2.45 0 00-.8-1.15 3.62 3.62 0 00-1.51-.68 8.73 8.73 0 00-2.41-.29h-4.12v7.71zm21.64 9.35a7.1 7.1 0 01-2.31 1.83 7 7 0 01-3.32.77 7.67 7.67 0 01-2.2-.29 5 5 0 01-1.81-.87 3.77 3.77 0 01-1.21-1.54 5.18 5.18 0 01-.4-2.22 4.89 4.89 0 01.8-2.79 5.59 5.59 0 012-1.64 12.16 12.16 0 012.82-.87 16.55 16.55 0 013.12-.29l2.51-.1V70a3.2 3.2 0 00-.9-2.61 3.75 3.75 0 00-2.41-.67 4.71 4.71 0 00-2.62.58 2.7 2.7 0 00-1.1 1.64l-3.42-.39a4.94 4.94 0 012.21-3.55 9.81 9.81 0 014.93-1 10.64 10.64 0 013.31.48 4.65 4.65 0 012.07 1.32 4.89 4.89 0 011.11 2.12 11.21 11.21 0 01.3 2.7v10.21h-3.62v-2.21zm-2.51-5.5a17 17 0 00-2.71.39 5 5 0 00-1.61.67 1.8 1.8 0 00-.7.87 3.51 3.51 0 00-.2 1.16 2 2 0 00.7 1.64 3.42 3.42 0 002.11.57 5.06 5.06 0 003.62-1.15 4.29 4.29 0 001.2-3.28V73zm9.85 10.6a5.69 5.69 0 001.91.29 2.11 2.11 0 001.5-.48 3.47 3.47 0 001-1.74l.6-1.54-7.13-15.8h4.32l4.72 11.76 4.32-11.76h4l-6.73 16.48c-.4 1-.8 1.83-1.11 2.5a4.94 4.94 0 01-1.2 1.83 5.75 5.75 0 01-1.47 1.16 4.75 4.75 0 01-2.21.38 9.14 9.14 0 01-1.61-.09 8.29 8.29 0 01-1.5-.39zm21.3-19.27v2.32a6.42 6.42 0 014.22-2.7 5.37 5.37 0 011.31-.1 4.4 4.4 0 012.81.87 5 5 0 011.61 2.16 6.86 6.86 0 015.53-3 5.19 5.19 0 014 1.45 7.15 7.15 0 011.3 4.62v10.76h-3.72V71a11.61 11.61 0 00-.2-2 3.71 3.71 0 00-.5-1.25 2.6 2.6 0 00-.8-.67 3.66 3.66 0 00-1.11-.2 3.21 3.21 0 00-1.71.39 5.9 5.9 0 00-1.3.87 5.37 5.37 0 00-.81 1.25 3.72 3.72 0 00-.3 1.44v9.83h-3.7v-10c0-1.45-.2-2.41-.7-2.89a2.39 2.39 0 00-1.81-.77 8.41 8.41 0 00-1.2.19 3.35 3.35 0 00-1.31.68 4.85 4.85 0 00-1.11 1.25 3.67 3.67 0 00-.5 1.93v9.73h-3.72V64.45zm39.89 11.47a6.53 6.53 0 01-2.21 4 8 8 0 01-5.12 1.44 8.17 8.17 0 01-6.13-2.26 8.91 8.91 0 01-2.11-6.36 11 11 0 01.6-3.76 8.84 8.84 0 011.71-2.79 6.89 6.89 0 012.61-1.74 9.33 9.33 0 013.32-.57 9.5 9.5 0 013.42.57 7.25 7.25 0 012.45 1.64 6.9 6.9 0 011.4 2.51 10.44 10.44 0 01.51 3.27v1.54h-12.3a5.17 5.17 0 001.2 3.57 4.41 4.41 0 003.42 1.35 3.8 3.8 0 002.61-.68 3.22 3.22 0 001.21-1.92h3.41zM214.3 71a4.49 4.49 0 00-1-3.18 3.8 3.8 0 00-3.11-1.16 4 4 0 00-3.12 1.16 5.14 5.14 0 00-1.2 3.18zm10.95-6.55v2.41a8.93 8.93 0 012.51-2.21 6.61 6.61 0 013-.68c3.82 0 5.73 2 5.73 6.07v10.79h-3.72V70.52a4.13 4.13 0 00-.7-2.79 2.7 2.7 0 00-2.22-.77 5.94 5.94 0 00-1.8.29 3.31 3.31 0 00-1.41.87 3.36 3.36 0 00-.91 1.34 3.93 3.93 0 00-.3 1.55v9.73h-3.71V64.45zm13.67 2.89v-2.79h2.71v-4.43h3.72v4.43h4.22v2.79h-4.22v8.58a2.9 2.9 0 00.5 1.83 2.2 2.2 0 001.61.58 4.21 4.21 0 001.11-.1 3.92 3.92 0 001-.19l.6 2.7a13 13 0 01-3.41.48c-1.91 0-3.22-.48-3.92-1.45a6.81 6.81 0 01-1.11-4.14v-8.19h-2.81zm16.18 8.48a2.73 2.73 0 00.5 1.35 2.51 2.51 0 00.9.87 3 3 0 001.31.38 7.62 7.62 0 001.51.1 5.05 5.05 0 002.71-.58 1.85 1.85 0 00.8-1.54 2.05 2.05 0 00-.5-1.35 3.07 3.07 0 00-2.11-.77c-1.3-.19-2.51-.48-3.62-.67a9.51 9.51 0 01-2.61-.87 4.73 4.73 0 01-1.61-1.45 4 4 0 01-.5-2.31 4.34 4.34 0 01.5-2 3.71 3.71 0 011.51-1.54 7.67 7.67 0 012.21-1 13.42 13.42 0 012.82-.38 11.41 11.41 0 013.31.38 5.28 5.28 0 012.11 1.06 4.46 4.46 0 011.21 1.55 9.66 9.66 0 01.7 1.83l-3.42.48a4.24 4.24 0 00-1.2-1.83 4.61 4.61 0 00-2.71-.58 9.86 9.86 0 00-1.81.19 2.94 2.94 0 00-1.11.48 1.34 1.34 0 00-.6.68 1.56 1.56 0 00-.1.67 2.06 2.06 0 00.1.87 1.35 1.35 0 00.5.58 1.88 1.88 0 00.9.38c.41.1.91.2 1.51.29l2.11.39a14.66 14.66 0 012.82.67 5.18 5.18 0 011.8 1.06 3.15 3.15 0 01.91 1.45 5.53 5.53 0 01.3 1.92 4.23 4.23 0 01-1.81 3.57 9.29 9.29 0 01-5.42 1.35 13.48 13.48 0 01-2.82-.29 8.91 8.91 0 01-2.41-.87 4.57 4.57 0 01-1.71-1.64 6.21 6.21 0 01-.83-2.7h3.82z" fill="#fff"/><path d="M40.03 39V23.64h4.34a6.85 6.85 0 013.54.89 6 6 0 012.34 2.52 8.09 8.09 0 01.85 3.75v1a8.23 8.23 0 01-.84 3.81 5.88 5.88 0 01-2.4 2.51 7.28 7.28 0 01-3.61.88zm2-13.69v12h2.13a4.63 4.63 0 003.64-1.45 6 6 0 001.31-4.15v-.9a6 6 0 00-1.24-4.06 4.32 4.32 0 00-3.48-1.47zm11.33 7.88a6.87 6.87 0 01.65-3 4.87 4.87 0 014.53-2.8 4.81 4.81 0 013.8 1.61 6.2 6.2 0 011.44 4.29v.14a6.81 6.81 0 01-.64 3 4.79 4.79 0 01-1.83 2 5 5 0 01-2.72.74 4.85 4.85 0 01-3.77-1.61 6.24 6.24 0 01-1.43-4.28zm2 .23a4.87 4.87 0 00.88 3 2.85 2.85 0 002.36 1.15 2.81 2.81 0 002.36-1.16 5.32 5.32 0 00.88-3.27 4.82 4.82 0 00-.9-3 3 3 0 00-4.69 0 5.28 5.28 0 00-.9 3.28zm12.72-5.84l.06 1.42a4.15 4.15 0 013.42-1.65q3.61 0 3.65 4.09V39h-1.96v-7.55a2.59 2.59 0 00-.56-1.83 2.27 2.27 0 00-1.72-.62 2.8 2.8 0 00-1.67.51 3.39 3.39 0 00-1.12 1.33V39h-1.93V27.58zM85.25 39a3.89 3.89 0 01-.28-1.2 4.35 4.35 0 01-3.25 1.41 4.07 4.07 0 01-2.77-1 3.11 3.11 0 01-1.08-2.43 3.22 3.22 0 011.35-2.76 6.41 6.41 0 013.82-1h1.9v-.9a2.16 2.16 0 00-.61-1.62 2.45 2.45 0 00-1.81-.61 2.86 2.86 0 00-1.75.52 1.57 1.57 0 00-.7 1.28h-2a2.71 2.71 0 01.6-1.65 4.12 4.12 0 011.64-1.26 5.58 5.58 0 012.29-.47 4.44 4.44 0 013.09 1 3.48 3.48 0 011.16 2.71v5.25a6.56 6.56 0 00.4 2.5V39zm-3.24-1.49a3.5 3.5 0 001.74-.47 2.89 2.89 0 001.19-1.24v-2.34h-1.53c-2.39 0-3.59.7-3.59 2.1a1.8 1.8 0 00.62 1.44 2.35 2.35 0 001.52.51zm10.54-12.69v2.76h2.13v1.51h-2.13v7.08a1.63 1.63 0 00.29 1 1.22 1.22 0 001 .33 5.1 5.1 0 00.93-.12V39a5.77 5.77 0 01-1.5.21 2.44 2.44 0 01-2-.79 3.43 3.43 0 01-.66-2.25v-7.08h-2.08v-1.51h2.08v-2.76zm9.16 14.39a5 5 0 01-3.78-1.52 5.68 5.68 0 01-1.46-4.08v-.36a6.88 6.88 0 01.65-3 5.14 5.14 0 011.81-2.09 4.63 4.63 0 012.53-.76 4.29 4.29 0 013.47 1.47 6.38 6.38 0 011.23 4.2v.81h-7.73a4.05 4.05 0 001 2.73 3.11 3.11 0 002.4 1 3.45 3.45 0 001.76-.42 4.73 4.73 0 001.25-1.12l1.19.93a4.78 4.78 0 01-4.32 2.21zM101.46 29a2.63 2.63 0 00-2 .86 4.2 4.2 0 00-1 2.41h5.79v-.17a3.71 3.71 0 00-.8-2.3 2.45 2.45 0 00-1.99-.8zm16.91 8.64a2.82 2.82 0 001.82-.63 2.27 2.27 0 00.87-1.59h1.84a3.52 3.52 0 01-.67 1.87 4.44 4.44 0 01-1.67 1.41 4.66 4.66 0 01-2.19.53 4.74 4.74 0 01-3.72-1.55 6.25 6.25 0 01-1.4-4.28v-.33a7 7 0 01.61-3 4.63 4.63 0 011.76-2 5 5 0 012.71-.72 4.57 4.57 0 013.18 1.15 4.1 4.1 0 011.36 3h-1.84a2.69 2.69 0 00-.85-1.82 2.61 2.61 0 00-1.85-.71 2.77 2.77 0 00-2.32 1.07 5 5 0 00-.81 3.09v.37a4.93 4.93 0 00.81 3 2.77 2.77 0 002.36 1.12zm12.25-8.28a5.86 5.86 0 00-1-.08 2.57 2.57 0 00-2.6 1.64V39h-2V27.58h1.9v1.32a3 3 0 012.72-1.53 2 2 0 01.87.15zm5.72 6.8L139 27.6h2.09l-4.59 13.18q-1.06 2.85-3.38 2.85h-.37l-.73-.14v-1.63h.53a2.56 2.56 0 001.54-.4 2.93 2.93 0 00.91-1.47l.44-1.16-4.08-11.29h2.13zm16.15-2.72a6.8 6.8 0 01-1.2 4.2 3.81 3.81 0 01-3.22 1.59 4.21 4.21 0 01-3.28-1.32v5.5h-1.95V27.58h1.79l.09 1.27a4 4 0 013.31-1.48 3.88 3.88 0 013.22 1.55 6.93 6.93 0 011.21 4.32zm-2-.22a5 5 0 00-.82-3.05 2.64 2.64 0 00-2.22-1.17 2.87 2.87 0 00-2.66 1.57v5.46a2.88 2.88 0 002.68 1.56 2.63 2.63 0 002.23-1.11 5.48 5.48 0 00.83-3.28zm7.09-8.38v2.76h2.13v1.51h-2.13v7.08a1.63 1.63 0 00.29 1 1.22 1.22 0 001 .33 5.1 5.1 0 00.93-.12V39a5.77 5.77 0 01-1.5.21 2.41 2.41 0 01-2-.79 3.38 3.38 0 01-.67-2.25v-7.08h-2.08v-1.51h2.08v-2.76zm3.7 8.37a6.73 6.73 0 01.65-3 5 5 0 011.83-2.07 5.09 5.09 0 012.69-.73 4.79 4.79 0 013.8 1.59 6.16 6.16 0 011.45 4.29v.14a6.81 6.81 0 01-.65 3 4.83 4.83 0 01-1.82 2 5.06 5.06 0 01-2.72.74 4.83 4.83 0 01-3.77-1.61 6.19 6.19 0 01-1.43-4.28zm2 .23a4.93 4.93 0 00.87 3 2.86 2.86 0 002.37 1.15 2.81 2.81 0 002.36-1.16 5.39 5.39 0 00.88-3.27 4.82 4.82 0 00-.9-3 3 3 0 00-4.7 0 5.28 5.28 0 00-.91 3.26zm26.34 2.89l2.2-8.73h2L190.44 39h-1.58l-2.77-8.65-2.7 8.65h-1.59l-3.31-11.42h1.94l2.25 8.55 2.66-8.55h1.57zm8.26 2.67h-1.95V27.58h1.95zm-2.11-14.44a1.16 1.16 0 01.29-.8 1.08 1.08 0 01.86-.33 1.12 1.12 0 01.87.33 1.23 1.23 0 010 1.59 1.14 1.14 0 01-.87.31 1.1 1.1 0 01-.86-.31 1.15 1.15 0 01-.29-.79zm7.89.26v2.76h2.13v1.51h-2.13v7.08a1.63 1.63 0 00.29 1 1.22 1.22 0 001 .33 5.1 5.1 0 00.93-.12V39a5.77 5.77 0 01-1.5.21 2.41 2.41 0 01-2-.79 3.38 3.38 0 01-.67-2.25v-7.08h-2.08v-1.51h2.08v-2.76zm6.38 4.18a4.15 4.15 0 013.37-1.6q3.61 0 3.65 4.09V39h-1.95v-7.55a2.63 2.63 0 00-.57-1.83 2.27 2.27 0 00-1.72-.59 2.82 2.82 0 00-1.67.51 3.37 3.37 0 00-1.11 1.33V39h-2V22.8h2z" fill="#ff7da0"/></svg>